<svg width="40" height="40" viewBox="0 0 40 40" fill="none" xmlns="http://www.w3.org/2000/svg">
<rect x="2" y="2" width="36" height="36" rx="4" fill="#F05133"/>
<rect x="27.5789" y="30.4211" width="8.52632" height="1.89474" rx="0.947368" fill="white"/>
<rect x="30.8947" y="35.6316" width="8.52632" height="1.89474" rx="0.947368" transform="rotate(-90 30.8947 35.6316)" fill="white"/>
<path d="M28.3134 20.2338L28.3368 20.1938L28.3575 20.1524C28.4063 20.0548 28.4956 19.9075 28.6124 19.7149C29.2861 18.6042 30.8737 15.9868 30.8737 12.6967C30.8737 11.7807 30.4309 11.0651 29.8428 10.5723C29.2932 10.1118 28.6008 9.82443 27.9323 9.63273C26.5872 9.24701 24.8906 9.12632 23.3067 9.12632H19.5263C18.996 9.12632 18.2134 9.26748 17.4312 9.44651C16.6055 9.63552 15.6425 9.89981 14.6912 10.207C13.7433 10.5131 12.7791 10.8707 11.9609 11.251C11.2098 11.6001 10.3595 12.0656 9.8559 12.66L9.82469 12.6968L9.79609 12.7357C9.30836 13.399 9.12632 14.2615 9.12632 15.1084C9.12632 16.3952 9.47132 17.9704 9.98561 19.5466C10.5072 21.1454 11.2352 22.8419 12.0719 24.3985C12.904 25.9466 13.8723 27.4096 14.8929 28.5074C15.8462 29.5327 17.1235 30.5434 18.5828 30.5434C19.277 30.5434 19.9591 30.3064 20.5667 29.9878C21.1887 29.6616 21.8209 29.2035 22.4396 28.6503C23.6779 27.5435 24.9508 25.977 26.0708 24.0634L28.3134 20.2338Z" stroke="white" stroke-width="2.8"/>
<path d="M26.0708 24.0634L27.834 21.0508L24.4777 22.0101C24.4271 22.0246 24.3486 22.0402 24.2543 22.0515C24.1858 22.0597 24.1271 22.0636 24.0879 22.065C24.0633 22.0556 24.0025 22.0283 23.9023 21.9576C23.709 21.8213 23.4593 21.5857 23.1662 21.2292C22.5813 20.518 21.9599 19.4938 21.385 18.3338C20.8149 17.1833 20.3175 15.9538 19.9655 14.8646C19.6004 13.7348 19.4358 12.8888 19.4358 12.4556C19.4358 12.2209 19.4934 12.0862 19.5422 11.9971C19.5726 11.9415 19.6056 11.8927 19.6624 11.8118C19.6643 11.8092 19.6663 11.8063 19.6685 11.8031C19.6923 11.7694 19.7368 11.7061 19.7761 11.6437L19.7763 11.6434C19.8097 11.5904 19.913 11.4262 19.9769 11.2062L20.4965 9.4159H18.6324C17.651 9.4159 15.8324 9.82727 14.2145 10.3525C13.3764 10.6245 12.524 10.9489 11.7883 11.307C11.0987 11.6426 10.3412 12.0873 9.8559 12.66L9.82469 12.6968L9.79609 12.7357C9.30836 13.399 9.12632 14.2615 9.12632 15.1084C9.12632 16.3952 9.47132 17.9704 9.98561 19.5466C10.5072 21.1454 11.2352 22.8419 12.0719 24.3985C12.904 25.9466 13.8723 27.4096 14.8929 28.5074C15.8462 29.5327 17.1235 30.5434 18.5828 30.5434C19.277 30.5434 19.9591 30.3064 20.5667 29.9878C21.1887 29.6616 21.8209 29.2035 22.4396 28.6503C23.6779 27.5435 24.9508 25.977 26.0708 24.0634Z" stroke="white" stroke-width="2.8"/>
<path d="M30.8737 12.6967C30.8737 11.7807 30.4309 11.0651 29.8428 10.5723C29.2932 10.1118 28.6008 9.82443 27.9323 9.63273C26.5872 9.24701 24.8906 9.12632 23.3067 9.12632C22.6921 9.12632 21.7849 9.15388 21.0805 9.6888C20.251 10.3186 20.1169 11.2801 20.1169 12.0217C20.1169 13.709 20.8552 16.0003 21.7964 17.8197C22.2761 18.7469 22.8536 19.641 23.4965 20.3255C24.0891 20.9564 24.9806 21.6691 26.0919 21.6691C26.6432 21.6691 27.0867 21.4294 27.3714 21.2291C27.6743 21.0159 27.9434 20.7442 28.176 20.4666C28.6438 19.9084 29.0897 19.1743 29.4742 18.3723C30.2386 16.7781 30.8737 14.6758 30.8737 12.6967Z" stroke="white" stroke-width="2.8"/>
</svg>
