<svg width="16" height="16" viewBox="0 0 16 16" fill="none" xmlns="http://www.w3.org/2000/svg">
<g clip-path="url(#clip0_559_294)">
<path d="M13.6 0.799999H2.4C1.51635 0.799999 0.800003 1.51634 0.800003 2.4V13.6C0.800003 14.4837 1.51635 15.2 2.4 15.2H13.6C14.4837 15.2 15.2 14.4837 15.2 13.6V2.4C15.2 1.51634 14.4837 0.799999 13.6 0.799999Z" fill="#FF8700"/>
<path d="M14.0631 12.1684H11.4105C11.2012 12.1684 11.0316 12.3381 11.0316 12.5474V12.5474C11.0316 12.7567 11.2012 12.9263 11.4105 12.9263H14.0631C14.2724 12.9263 14.4421 12.7567 14.4421 12.5474C14.4421 12.3381 14.2724 12.1684 14.0631 12.1684Z" fill="white"/>
<path d="M12.3579 11.2211V13.8737C12.3579 14.083 12.5275 14.2526 12.7368 14.2526H12.7368C12.9461 14.2526 13.1158 14.083 13.1158 13.8737V11.2211C13.1158 11.0118 12.9461 10.8421 12.7368 10.8421C12.5275 10.8421 12.3579 11.0118 12.3579 11.2211Z" fill="white"/>
<path d="M11.3253 8.09352L11.3347 8.07752L11.343 8.06096C11.3625 8.02192 11.3982 7.963 11.4449 7.88596C11.7144 7.44168 12.3495 6.39472 12.3495 5.07868C12.3495 4.71228 12.1723 4.42604 11.9371 4.22892C11.7173 4.04472 11.4403 3.92977 11.1729 3.85309C10.6349 3.6988 9.95622 3.65053 9.32266 3.65053H7.8105C7.59838 3.65053 7.28534 3.70699 6.97246 3.7786C6.64218 3.85421 6.25698 3.95992 5.87646 4.0828C5.4973 4.20524 5.11162 4.34828 4.78434 4.5004C4.4839 4.64004 4.14378 4.82624 3.94234 5.064L3.92986 5.07872L3.91842 5.09428C3.72333 5.3596 3.65051 5.7046 3.65051 6.04336C3.65051 6.55808 3.78851 7.18816 3.99423 7.81864C4.20286 8.45816 4.49406 9.13676 4.82874 9.7594C5.16158 10.3786 5.5489 10.9638 5.95714 11.403C6.33846 11.8131 6.84938 12.2174 7.4331 12.2174C7.71078 12.2174 7.98362 12.1226 8.22666 11.9951C8.47546 11.8646 8.72834 11.6814 8.97582 11.4601C9.47114 11.0174 9.98031 10.3908 10.4283 9.62536L11.3253 8.09352Z" stroke="white"/>
<path d="M10.4283 9.62536L11.1336 8.42032L9.79106 8.80404C9.77082 8.80984 9.73942 8.81608 9.7017 8.8206C9.6743 8.82388 9.65082 8.82544 9.63514 8.826C9.6253 8.82224 9.60098 8.81132 9.5609 8.78304C9.48358 8.72852 9.38371 8.63428 9.26647 8.49168C9.03251 8.2072 8.78394 7.79752 8.55398 7.33352C8.32594 6.87332 8.12698 6.38152 7.98618 5.94584C7.84014 5.49392 7.77431 5.15552 7.77431 4.98224C7.77431 4.88836 7.79734 4.83448 7.81686 4.79884C7.82902 4.7766 7.84222 4.75708 7.86494 4.72472C7.8657 4.72368 7.86651 4.72252 7.86739 4.72124C7.87691 4.70776 7.8947 4.68244 7.91042 4.65748L7.9105 4.65736C7.92386 4.63616 7.96518 4.57048 7.99074 4.48248L8.19858 3.76636H7.45295C7.06038 3.76636 6.33294 3.93091 5.68578 4.141C5.35054 4.2498 5.00958 4.37956 4.7153 4.5228C4.43946 4.65704 4.13646 4.83492 3.94234 5.064L3.92986 5.07872L3.91842 5.09428C3.72333 5.3596 3.65051 5.7046 3.65051 6.04336C3.65051 6.55808 3.78851 7.18816 3.99423 7.81864C4.20286 8.45816 4.49406 9.13676 4.82874 9.7594C5.16158 10.3786 5.5489 10.9638 5.95714 11.403C6.33846 11.8131 6.84938 12.2174 7.4331 12.2174C7.71078 12.2174 7.98362 12.1226 8.22666 11.9951C8.47546 11.8646 8.72834 11.6814 8.97582 11.4601C9.47114 11.0174 9.98031 10.3908 10.4283 9.62536Z" stroke="white"/>
<path d="M12.3495 5.07868C12.3495 4.71228 12.1724 4.42604 11.9371 4.22892C11.7173 4.04472 11.4403 3.92977 11.1729 3.85309C10.6349 3.6988 9.95623 3.65053 9.32267 3.65053C9.07683 3.65053 8.71395 3.66155 8.43219 3.87552C8.10039 4.12744 8.04675 4.51204 8.04675 4.80868C8.04675 5.4836 8.34207 6.40012 8.71855 7.12788C8.91043 7.49876 9.14143 7.8564 9.39859 8.1302C9.63563 8.38256 9.99223 8.66764 10.4368 8.66764C10.6573 8.66764 10.8347 8.57176 10.9486 8.49164C11.0697 8.40636 11.1774 8.29768 11.2704 8.18664C11.4575 7.96336 11.6359 7.66972 11.7897 7.34892C12.0954 6.71124 12.3495 5.87032 12.3495 5.07868Z" stroke="white"/>
</g>
<defs>
<clipPath id="clip0_559_294">
<rect width="16" height="16" fill="white"/>
</clipPath>
</defs>
</svg>
