<svg width="16" height="16" viewBox="0 0 16 16" fill="none" xmlns="http://www.w3.org/2000/svg">
<path d="M6.99997 14C3.86089 13.2078 1.33909 6.28697 1.99997 4C2.7773 3.0798 3.90909 2.64036 6.99999 2C5.99999 4 8.84387 10.4093 11.1001 10.2689C9.58032 12.3865 7.99998 14 6.99997 14Z" fill="white"/>
<path d="M14 3C14.3145 3.73539 13.2593 6.71138 12.2376 8.5C9.99998 8.5 8.17089 2.37139 8.84387 1.80495C10.5 1.5 13.5 2 14 3Z" fill="white"/>
<rect x="8" y="8" width="8" height="8" rx="1" fill="#2b2d30"/>
<path d="M10 11C10 10.4477 10.4477 10 11 10H14C14.5523 10 15 10.4477 15 11V14C15 14.5523 14.5523 15 14 15H11C10.4477 15 10 14.5523 10 14V11Z" fill="white"/>
<path d="M11.5 9H13.5V10H11.5V9Z" fill="white"/>
<rect x="11" y="11.5" width="1" height="1" fill="#2b2d30"/>
<rect x="13" y="11.5" width="1" height="1" fill="#2b2d30"/>
<rect x="11.5" y="13.5" width="2" height="0.5" fill="#2b2d30"/>
</svg>
