<svg width="16" height="16" viewBox="0 0 16 16" fill="none" xmlns="http://www.w3.org/2000/svg">
<path d="M9.82321 2.67714C9.48281 2.33692 9.06961 2.16676 8.58341 2.16676C8.09751 2.16676 7.68428 2.33682 7.34396 2.67714C7.00376 3.01737 6.83367 3.43051 6.83367 3.91672C6.83367 4.23268 6.91243 4.52588 7.07042 4.79626C7.22839 5.06666 7.44088 5.27787 7.70841 5.42971C7.70841 5.74567 7.68274 6.02377 7.63119 6.26375C7.5794 6.50373 7.49442 6.71478 7.37598 6.8972C7.25722 7.07953 7.13443 7.23436 7.00673 7.36203C6.879 7.4897 6.69974 7.60961 6.46886 7.72208C6.23801 7.83449 6.02367 7.92857 5.82625 8.00464C5.62882 8.08047 5.36289 8.17008 5.0287 8.27342C4.42098 8.46187 3.95318 8.63491 3.62502 8.793V4.26292C3.89239 4.11111 4.10508 3.89993 4.26304 3.62953C4.42098 3.35912 4.49996 3.06589 4.49996 2.74993C4.49996 2.26388 4.32989 1.85064 3.98957 1.51042C3.64938 1.17022 3.23624 1 2.75006 1C2.26384 1 1.8507 1.1701 1.51038 1.51042C1.17019 1.85064 1 2.26388 1 2.74993C1 3.06589 1.07898 3.35912 1.23691 3.62953C1.39488 3.89993 1.60753 4.11111 1.87493 4.26292V11.7371C1.60753 11.8888 1.39488 12.1002 1.23691 12.3705C1.07898 12.641 1 12.9343 1 13.2501C1 13.7362 1.17006 14.1494 1.51038 14.4896C1.8507 14.8298 2.26394 15 2.75006 15C3.23615 15 3.64938 14.8298 3.98957 14.4896C4.3298 14.1494 4.49996 13.7362 4.49996 13.2501C4.49996 12.9343 4.42098 12.641 4.26304 12.3705C4.10505 12.1002 3.89239 11.8888 3.62502 11.7371V11.5001C3.62502 11.0809 3.7511 10.7772 4.00324 10.5888C4.25538 10.4003 4.77036 10.1846 5.54824 9.94163C6.36868 9.68029 6.98554 9.43405 7.39871 9.20307C8.75981 8.43155 9.44641 7.17367 9.45851 5.42968C9.72611 5.27787 9.93861 5.06663 10.0965 4.79622C10.2544 4.52582 10.3335 4.23265 10.3335 3.91669C10.3336 3.4306 10.1634 3.01746 9.82321 2.67714Z" fill="#6E6E6E"/>
<path fill-rule="evenodd" clip-rule="evenodd" d="M14.13 11.8349L14.13 14.0224L13.4098 13.3022C12.8993 13.8434 12.1632 14.1653 11.362 14.1233C10.069 14.0555 9.04375 13.0631 8.89336 11.8203L9.70437 11.8915C9.87603 12.6811 10.5582 13.2906 11.404 13.335C11.9726 13.3648 12.4944 13.1327 12.8523 12.7443L11.9425 11.8349L14.13 11.8349ZM11.6368 8.88046C12.9124 8.94732 13.9275 9.91423 14.0989 11.1336L13.2853 11.0626C13.0976 10.2954 12.4256 9.70848 11.5963 9.66501C11.0278 9.63522 10.5061 9.86715 10.1482 10.2555L11.0596 11.1672L8.87213 11.1672L8.87213 8.9797L9.59133 9.69905C10.1018 9.15934 10.8368 8.83854 11.6368 8.88046Z" fill="#389FD6"/>
</svg>
